<svg width="178" height="52" viewBox="13 13 178 50" fill="none" xmlns="http://www.w3.org/2000/svg"><g clip-path="url(#clip0_2283_65)"><path d="M185.171 67.043H19.934c-3.702 0-6.61-3.052-6.61-6.636V20.592c0-3.717 3.04-6.636 6.61-6.636H185.17c3.702 0 6.61 3.052 6.61 6.636v39.815c0 3.584-2.908 6.636-6.61 6.636z" fill="#000"/><path d="M185.171 15.017c3.041 0 5.552 2.522 5.552 5.575v39.815c0 3.053-2.511 5.575-5.552 5.575H19.934c-3.04 0-5.552-2.522-5.552-5.575V20.592c0-3.053 2.511-5.575 5.552-5.575H185.17zm0-1.061H19.934c-3.702 0-6.61 3.052-6.61 6.636v39.815c0 3.717 3.04 6.636 6.61 6.636H185.17c3.702 0 6.61-3.052 6.61-6.636V20.592c0-3.584-2.908-6.636-6.61-6.636z" fill="#A6A6A6"/><path d="M103.346 42.888c-3.173 0-5.684 2.39-5.684 5.707 0 3.185 2.511 5.707 5.684 5.707 3.172 0 5.684-2.389 5.684-5.707 0-3.45-2.512-5.707-5.684-5.707zm0 9.025c-1.719 0-3.173-1.46-3.173-3.45 0-1.991 1.454-3.451 3.173-3.451 1.718 0 3.172 1.327 3.172 3.45 0 1.991-1.454 3.451-3.172 3.451zm-12.294-9.025c-3.173 0-5.684 2.39-5.684 5.707 0 3.185 2.511 5.707 5.684 5.707s5.684-2.389 5.684-5.707c0-3.45-2.511-5.707-5.684-5.707zm0 9.025c-1.718 0-3.173-1.46-3.173-3.45 0-1.991 1.455-3.451 3.173-3.451s3.173 1.327 3.173 3.45c0 1.991-1.454 3.451-3.173 3.451zm-14.673-7.3v2.39h5.684c-.132 1.327-.66 2.389-1.322 3.052-.793.796-2.115 1.725-4.362 1.725-3.57 0-6.213-2.787-6.213-6.37 0-3.584 2.776-6.37 6.213-6.37 1.85 0 3.305.796 4.362 1.725l1.719-1.726c-1.454-1.327-3.305-2.389-5.949-2.389-4.759 0-8.857 3.982-8.857 8.76s4.098 8.76 8.857 8.76c2.644 0 4.495-.797 6.08-2.522 1.587-1.593 2.116-3.85 2.116-5.575 0-.53 0-1.061-.132-1.46h-8.196zm60.014 1.859c-.529-1.328-1.85-3.584-4.759-3.584-2.908 0-5.287 2.256-5.287 5.707 0 3.185 2.379 5.707 5.552 5.707 2.511 0 4.098-1.593 4.626-2.522l-1.85-1.327c-.661.93-1.454 1.593-2.776 1.593-1.322 0-2.115-.531-2.776-1.725l7.535-3.186-.265-.663zm-7.667 1.858c0-2.124 1.719-3.318 2.908-3.318.926 0 1.851.53 2.115 1.194l-5.023 2.124zm-6.213 5.441h2.512v-16.59h-2.512v16.59zm-3.965-9.688c-.661-.664-1.719-1.328-3.041-1.328-2.776 0-5.42 2.522-5.42 5.707 0 3.186 2.512 5.575 5.42 5.575 1.322 0 2.38-.664 2.908-1.328h.133v.797c0 2.123-1.19 3.318-3.041 3.318-1.454 0-2.511-1.062-2.776-1.991l-2.115.929c.661 1.46 2.247 3.318 5.023 3.318 2.909 0 5.288-1.725 5.288-5.84V43.154h-2.379v.929zm-2.909 7.83c-1.718 0-3.172-1.46-3.172-3.45 0-1.991 1.454-3.451 3.172-3.451 1.719 0 3.041 1.46 3.041 3.45 0 1.991-1.322 3.451-3.041 3.451zm32.255-14.732h-5.949v16.59h2.512v-6.238h3.437c2.776 0 5.42-1.99 5.42-5.176 0-3.185-2.644-5.176-5.42-5.176zm.132 7.963h-3.569v-5.706h3.569c1.851 0 2.908 1.592 2.908 2.787-.132 1.46-1.19 2.92-2.908 2.92zm15.202-2.389c-1.851 0-3.701.797-4.362 2.522l2.247.93c.529-.93 1.322-1.195 2.247-1.195 1.322 0 2.512.796 2.644 2.123v.133c-.397-.266-1.454-.664-2.512-.664-2.379 0-4.759 1.328-4.759 3.717 0 2.256 1.983 3.716 4.098 3.716 1.719 0 2.512-.797 3.173-1.593h.132v1.327h2.379v-6.37c-.264-2.92-2.511-4.646-5.287-4.646zm-.265 9.158c-.793 0-1.982-.398-1.982-1.46 0-1.327 1.454-1.725 2.643-1.725 1.058 0 1.587.265 2.248.53-.265 1.593-1.587 2.655-2.909 2.655zm13.88-8.76l-2.776 7.168h-.132l-2.908-7.167h-2.644l4.363 10.086-2.512 5.575h2.512l6.741-15.661h-2.644zm-22.207 10.618h2.511v-16.59h-2.511v16.59z" fill="#fff"/><path d="M27.072 23.91c-.396.398-.66 1.061-.66 1.857V55.1c0 .796.264 1.46.66 1.858l.132.132 16.392-16.457v-.265L27.072 23.909z" fill="url(#paint0_linear_2283_65)"/><path d="M49.016 46.207l-5.42-5.442v-.398l5.42-5.441.132.132 6.477 3.716c1.85 1.062 1.85 2.788 0 3.85l-6.61 3.583z" fill="url(#paint1_linear_2283_65)"/><path d="M49.148 46.074l-5.552-5.575-16.524 16.59c.661.664 1.586.664 2.776.133l19.3-11.148z" fill="url(#paint2_linear_2283_65)"/><path d="M49.148 34.925l-19.3-11.015c-1.19-.664-2.115-.531-2.776.132L43.596 40.5l5.552-5.575z" fill="url(#paint3_linear_2283_65)"/><path opacity=".2" d="M49.016 45.941L29.848 56.824c-1.057.664-1.983.531-2.644 0l-.132.133.132.133c.661.53 1.587.663 2.644 0L49.016 45.94z" fill="#000"/><path opacity=".12" d="M27.072 56.824c-.396-.398-.529-1.062-.529-1.858v.133c0 .796.265 1.46.661 1.858v-.133h-.132zM55.625 42.225l-6.61 3.716.133.133 6.477-3.716c.925-.531 1.322-1.195 1.322-1.858 0 .663-.529 1.194-1.322 1.725z" fill="#000"/><path opacity=".25" d="M29.848 24.042l25.777 14.732c.793.531 1.322 1.062 1.322 1.726 0-.664-.397-1.328-1.322-1.858L29.848 23.91c-1.85-1.062-3.305-.133-3.305 1.99v.133c0-2.123 1.454-3.052 3.305-1.99z" fill="#fff"/><path d="M185.172 15.017c3.04 0 5.552 2.522 5.552 5.575v39.815c0 3.053-2.512 5.575-5.552 5.575H19.934c-3.04 0-5.552-2.522-5.552-5.575V20.592c0-3.053 2.512-5.575 5.552-5.575h165.238zm0-1.061H19.934c-3.701 0-6.61 3.052-6.61 6.636v39.815c0 3.717 3.04 6.636 6.61 6.636h165.238c3.701 0 6.609-3.052 6.609-6.636V20.592c0-3.584-2.908-6.636-6.609-6.636z" fill="#A6A6A6"/><path d="M68.976 32.934h-.925V30.28h.793c.661-.53 1.058-1.593 1.058-3.053v-3.981h5.287v7.034h.926v2.654h-.926V31.21h-6.08v1.725h-.133zm1.851-5.707c0 1.195-.264 2.257-.793 3.053H74v-5.972h-3.305v2.92h.132zM83.914 30.147c-.793.797-1.719 1.195-2.908 1.195-1.19 0-2.115-.398-2.909-1.195-.793-.796-1.19-1.725-1.19-2.92 0-1.194.397-2.123 1.19-2.92.794-.796 1.719-1.194 2.909-1.194 1.19 0 2.115.398 2.908 1.195.793.796 1.19 1.725 1.19 2.92 0 1.194-.397 2.123-1.19 2.92zm-5.023-.663c.528.53 1.322.929 2.115.929.793 0 1.586-.266 2.115-.93.529-.53.925-1.326.925-2.255 0-.93-.264-1.726-.925-2.257-.529-.53-1.322-.929-2.115-.929-.793 0-1.587.266-2.115.93a3.208 3.208 0 00-.926 2.256c0 .929.265 1.725.926 2.256zM90.259 31.342c-1.19 0-2.115-.398-2.908-1.195-.793-.796-1.19-1.725-1.19-2.92 0-1.194.397-2.123 1.19-2.92.793-.796 1.718-1.194 2.908-1.194s2.115.398 2.908 1.328l-.66.663c-.53-.663-1.323-1.062-2.248-1.062-.925 0-1.586.266-2.247.93-.661.53-.925 1.326-.925 2.256 0 .929.264 1.725.925 2.256.529.53 1.322.929 2.247.929.925 0 1.719-.398 2.38-1.195l.66.664c-.396.398-.793.796-1.322 1.062a3.647 3.647 0 01-1.718.398zM97.53 31.209h-1.058v-7.034h-2.247v-.93h5.42v.93h-2.248v7.034h.132zM106.651 23.246l-3.041 6.769c-.396.929-1.057 1.46-1.85 1.46-.265 0-.529 0-.794-.133l.265-.93c.132.133.396.133.529.133.264 0 .396 0 .528-.132.133-.133.265-.266.397-.531l.264-.664-2.644-5.84h1.19l1.983 4.513 1.851-4.512h1.322v-.133zM107.84 31.209v-7.963h5.684v7.963h-1.057v-7.034h-3.701v7.034h-.926zM115.375 31.209v-7.963h1.058v3.45h3.965v-3.45h1.058v7.963h-1.058v-3.583h-3.965v3.583h-1.058zM129.784 30.147c-.793.797-1.719 1.195-2.908 1.195-1.19 0-2.115-.398-2.909-1.195-.793-.796-1.189-1.725-1.189-2.92 0-1.194.396-2.123 1.189-2.92.794-.796 1.719-1.194 2.909-1.194 1.189 0 2.115.398 2.908 1.195.793.796 1.19 1.725 1.19 2.92-.133 1.194-.529 2.123-1.19 2.92zm-5.156-.663c.529.53 1.322.929 2.115.929.794 0 1.587-.266 2.116-.93.528-.53.925-1.326.925-2.255 0-.93-.265-1.726-.925-2.257-.529-.53-1.322-.929-2.116-.929-.793 0-1.586.266-2.115.93a3.211 3.211 0 000 4.512zM135.071 31.209v-7.963h2.909c.661 0 1.189.265 1.586.663.396.399.661.93.661 1.593 0 .398-.132.664-.265 1.062-.132.265-.396.53-.793.663.397.133.661.399.926.664.264.266.396.664.396 1.195a2.2 2.2 0 01-.661 1.592c-.528.398-1.057.664-1.718.664h-3.041v-.133zm1.058-4.512h1.851c.396 0 .661-.133.925-.399.264-.265.397-.53.397-.796 0-.265-.133-.53-.397-.796s-.529-.398-.925-.398h-1.851v2.389zm0 3.583h2.115c.397 0 .661-.133.925-.398.265-.266.397-.531.397-.93 0-.265-.132-.663-.397-.928-.264-.266-.528-.398-.925-.398h-1.983v2.654h-.132z" fill="#fff" stroke="#fff" stroke-width=".2" stroke-miterlimit="10"/></g><defs><linearGradient id="paint0_linear_2283_65" x1="42.141" y1="25.515" x2="19.868" y2="47.699" gradientUnits="userSpaceOnUse"><stop stop-color="#00A0FF"/><stop offset=".007" stop-color="#00A1FF"/><stop offset=".26" stop-color="#00BEFF"/><stop offset=".512" stop-color="#00D2FF"/><stop offset=".76" stop-color="#00DFFF"/><stop offset="1" stop-color="#00E3FF"/></linearGradient><linearGradient id="paint1_linear_2283_65" x1="58.05" y1="40.502" x2="26.064" y2="40.502" gradientUnits="userSpaceOnUse"><stop stop-color="#FFE000"/><stop offset=".409" stop-color="#FFBD00"/><stop offset=".775" stop-color="orange"/><stop offset="1" stop-color="#FF9C00"/></linearGradient><linearGradient id="paint2_linear_2283_65" x1="46.143" y1="43.547" x2="15.939" y2="73.631" gradientUnits="userSpaceOnUse"><stop stop-color="#FF3A44"/><stop offset="1" stop-color="#C31162"/></linearGradient><linearGradient id="paint3_linear_2283_65" x1="22.971" y1="14.19" x2="36.458" y2="27.623" gradientUnits="userSpaceOnUse"><stop stop-color="#32A071"/><stop offset=".069" stop-color="#2DA771"/><stop offset=".476" stop-color="#15CF74"/><stop offset=".801" stop-color="#06E775"/><stop offset="1" stop-color="#00F076"/></linearGradient><clipPath id="clip0_2283_65"><path fill="#fff" transform="translate(.105 .684)" d="M0 0h204.895v79.632H0z"/></clipPath></defs></svg>